<?xml version="1.0" encoding="utf-8"?>
<!-- Generator: Adobe Illustrator 16.0.0, SVG Export Plug-In . SVG Version: 6.00 Build 0)  -->
<!DOCTYPE svg PUBLIC "-//W3C//DTD SVG 1.1//EN" "http://www.w3.org/Graphics/SVG/1.1/DTD/svg11.dtd">
<svg version="1.1" id="Livello_1" xmlns="http://www.w3.org/2000/svg" xmlns:xlink="http://www.w3.org/1999/xlink" x="0px" y="0px"
	 width="217.698px" height="70.293px" viewBox="290.401 269.474 217.698 70.293"
	 enable-background="new 290.401 269.474 217.698 70.293" xml:space="preserve">
<g id="Livello_4">
</g>
<g id="Livello_3">
</g>
<g>
	<circle fill="#FFFFFF" cx="325.547" cy="304.62" r="35.147"/>
	<polygon fill="#FFDEE8" points="312.206,300.976 311.537,299.338 314.449,298.514 313.337,299.666 	"/>
	<polygon fill="#FFFDFE" points="308.712,292.42 308.712,291.527 315.084,297.938 	"/>
	<polygon fill="#EA6C93" points="312.206,295.446 315.084,297.938 314.449,298.514 	"/>
	<polygon fill="#300821" points="308.712,291.527 310.34,292.162 310.34,291.368 	"/>
	<polygon fill="#C01A5A" points="310.34,291.368 308.831,287.815 309.585,291.441 	"/>
	<polygon fill="#750342" points="309.585,291.441 308.712,291.527 308.831,287.815 	"/>
	<polygon fill="#4F0332" points="308.831,287.815 308.116,285.174 308.712,291.527 	"/>
	<polygon fill="#350124" points="308.831,287.815 310.34,291.368 309.585,288.569 	"/>
	<polygon fill="#4F0332" points="308.831,287.815 308.97,285.988 309.585,288.569 	"/>
	<polygon fill="#8E1144" points="308.97,285.988 308.831,287.815 308.116,285.174 	"/>
	<polygon fill="#7F133F" points="308.712,291.527 310.34,292.162 315.084,297.938 	"/>
	<polygon fill="#2D011C" points="315.084,297.938 317.347,297.482 313.337,295.812 	"/>
	<polygon fill="#4F0332" points="313.337,295.812 317.347,297.482 314.132,294.732 	"/>
	<polygon fill="#350124" points="313.337,295.812 314.132,294.732 310.34,292.162 	"/>
	<polygon fill="#7F133F" points="314.132,294.732 317.347,297.482 318.499,296.35 	"/>
	<polygon fill="#FFA6C6" points="314.132,294.732 318.677,295.953 318.499,296.35 	"/>
	<polygon fill="#EF3770" points="315.084,297.938 314.787,299.765 317.347,297.482 	"/>
	<polygon fill="#E7316E" points="314.449,298.514 314.787,299.765 315.084,297.938 	"/>
	<polygon fill="#F23B78" points="313.337,299.666 314.787,299.765 314.449,298.514 	"/>
	<polygon fill="#F7C6CF" points="312.206,300.976 313.337,299.666 314.787,299.765 	"/>
	<polygon fill="#E880A8" points="318.677,295.953 320.087,295.18 320.98,295.953 	"/>
	<polygon fill="#FCF5F8" points="318.677,295.953 318.499,296.35 320.98,295.953 	"/>
	<polygon fill="#FCBECF" points="317.347,297.482 318.499,296.35 320.98,295.953 	"/>
	<polygon fill="#F24077" points="314.787,299.765 318.082,298.624 317.347,297.482 	"/>
	<polygon fill="#F9B4BF" points="317.347,297.482 318.082,298.624 320.98,295.953 	"/>
	<polygon fill="#FFDEE8" points="320.087,295.18 321.834,294.604 320.98,295.953 	"/>
	<polygon fill="#FC90B4" points="312.206,300.976 311.024,302.723 314.787,299.765 	"/>
	<polygon fill="#FF7DB2" points="314.787,299.765 315.342,301.572 311.024,302.723 	"/>
	<polygon fill="#EA6C93" points="314.787,299.765 315.342,301.572 318.082,298.624 	"/>
	<polygon fill="#FFDEE8" points="315.342,301.572 314.132,303.676 310.955,302.723 	"/>
	<polygon fill="#FFA6C6" points="310.955,302.723 309.705,304.292 311.024,304.811 	"/>
	<polygon fill="#E5738B" points="310.955,302.723 311.024,304.811 314.132,303.676 	"/>
	<polygon fill="#F980A5" points="309.705,304.292 308.712,306.932 311.024,304.811 	"/>
	<polygon fill="#E880A8" points="314.132,303.676 315.342,304.926 315.342,301.572 	"/>
	<polygon fill="#FCBECF" points="311.024,304.811 314.132,303.676 315.342,304.926 	"/>
	<polygon fill="#E880A8" points="308.712,306.932 309.426,308.301 311.024,304.811 	"/>
	<polygon fill="#7A133D" points="311.024,304.811 310.955,310.028 309.426,308.301 	"/>
	<polygon fill="#FFDEE8" points="311.024,304.811 312.906,306.415 315.342,304.926 	"/>
	<polygon fill="#FCD9E4" points="311.024,304.811 310.955,310.028 312.906,306.415 	"/>
	<polygon fill="#EF3770" points="315.342,304.926 315.342,306.932 312.906,306.415 	"/>
	<polygon fill="#AF1C58" points="312.906,306.415 313.183,308.877 315.342,306.932 	"/>
	<polygon fill="#E7316E" points="312.906,306.415 313.183,308.877 310.955,310.028 	"/>
	<polygon fill="none" stroke="#020202" stroke-width="0.25" stroke-miterlimit="10" points="315.342,306.932 314.985,309.631 
		313.813,309.791 	"/>
	<polygon fill="#FFDEE8" points="315.342,306.932 313.183,308.877 313.813,309.791 	"/>
	<path fill="none" stroke="#020202" stroke-width="0.25" stroke-miterlimit="10" d="M315.342,306.932"/>
	<polygon fill="#F98CAE" points="315.342,306.932 315.342,304.926 316.851,304.301 	"/>
	<polygon fill="#C01A5A" points="315.342,306.932 314.985,309.631 315.918,307.072 	"/>
	<polygon fill="#7A133D" points="315.342,306.932 315.918,307.072 316.851,304.301 	"/>
	<polygon fill="#7F133F" points="314.985,309.631 315.452,309.631 315.918,307.072 	"/>
	<polygon fill="#190111" points="315.918,307.072 316.434,308.142 315.618,308.718 	"/>
	<polygon fill="#FF4379" points="316.434,308.142 315.618,308.718 315.452,309.631 	"/>
	<polygon fill="#660C37" points="316.851,304.301 320.424,303.954 316.54,305.226 	"/>
	<polygon fill="#350124" points="316.434,308.142 317.585,307.646 315.918,307.072 	"/>
	<polygon fill="#190111" points="316.54,305.226 315.918,307.072 317.585,307.646 	"/>
	<polygon fill="#350124" points="316.54,305.226 317.455,304.926 316.997,306.286 	"/>
	<polygon fill="#4F0332" points="317.455,304.926 316.997,306.286 320.424,303.954 	"/>
	<polygon fill="#3F082A" points="317.52,305.929 316.997,306.286 317.585,307.646 	"/>
	<polygon fill="#600C38" points="317.52,305.929 318.482,306.197 317.585,307.646 	"/>
	<polygon fill="#FFDEE8" points="317.52,305.929 318.082,306.085 320.424,303.954 	"/>
	<polygon fill="#11010C" points="318.082,306.085 320.424,303.954 318.482,306.197 	"/>
	<polygon fill="#FF7DB2" points="316.851,304.301 318.71,302.525 320.424,303.954 	"/>
	<polygon fill="#FF4D88" points="315.342,301.572 315.342,304.926 316.851,304.301 	"/>
	<polygon fill="#F7C6CF" points="316.851,304.301 318.71,302.525 318.221,301.73 	"/>
	<polygon fill="#931140" points="318.221,301.73 317.883,300.857 316.851,304.301 	"/>
	<polygon fill="#F980A5" points="315.342,301.572 317.883,300.857 316.851,304.301 	"/>
	<polygon fill="#F7C6CF" points="315.342,301.572 317.883,300.857 318.082,298.624 	"/>
	<polygon fill="#FF4D88" points="318.082,298.624 317.883,300.857 320.98,295.953 	"/>
	<polygon fill="#FF4379" points="318.71,302.525 320.603,301.244 320.424,303.954 	"/>
	<polygon fill="#F980A5" points="318.221,301.73 318.71,302.525 320.603,301.244 	"/>
	<polygon fill="#E880A8" points="317.883,300.857 318.221,301.73 320.603,301.244 	"/>
	<polygon fill="#FF4878" points="317.883,300.857 320.603,301.244 320.98,295.953 	"/>
	<polygon fill="#C01A5A" points="320.424,303.954 323.303,302.723 320.603,301.244 	"/>
	<polygon fill="#F24077" points="320.424,303.954 323.759,304.301 323.303,302.723 	"/>
	<polygon fill="#931140" points="323.759,304.301 324.156,304.811 320.424,303.954 	"/>
	<polygon fill="#210117" points="320.424,303.954 328.98,307.805 324.156,304.811 	"/>
	<polygon fill="#442714" points="323.759,304.301 324.156,304.811 328.98,307.805 	"/>
	<polygon fill="#B51851" points="323.759,304.301 328.98,307.805 323.303,302.723 	"/>
	<polygon fill="#210117" points="328.98,307.805 329.914,307.072 325.157,304.382 	"/>
	<polygon fill="#FCE6EE" points="315.452,309.631 315.72,310.992 316.434,308.142 	"/>
	<polygon fill="#F9E5ED" points="316.434,308.142 315.72,310.992 317.585,307.646 	"/>
	<polygon fill="#FFFDFE" points="317.585,307.646 319.253,306.476 320.424,303.954 318.482,306.197 	"/>
	<polygon fill="#1A0000" points="320.424,303.954 320.223,304.382 320.9,304.168 	"/>
	<polygon fill="#F7D0DE" points="320.223,304.382 321.035,305.226 319.253,306.476 	"/>
	<polygon fill="#E880A8" points="321.035,305.226 320.223,304.382 320.9,304.168 	"/>
	<path fill="none" stroke="#020202" stroke-width="0.25" stroke-miterlimit="10" d="M317.585,307.646"/>
	<polygon fill="#FCC3D4" points="317.585,307.646 316.884,308.877 321.035,305.226 	"/>
	<polygon fill="#351D09" points="316.884,308.877 315.72,310.992 321.035,305.226 	"/>
	<polygon fill="#EF3770" points="320.9,304.168 321.035,305.226 326.287,306.593 	"/>
	<polygon fill="#600C38" points="321.035,305.226 322.129,305.511 315.72,310.992 	"/>
	<polygon fill="#BF2558" points="322.129,305.511 323.164,306.932 315.72,310.992 	"/>
	<polygon fill="#701145" points="315.452,309.631 314.985,309.631 315.72,310.992 	"/>
	<polygon fill="#391D04" points="313.813,309.791 315.72,310.992 314.985,309.631 	"/>
	<polygon fill="#F7D0DE" points="310.955,310.028 313.813,309.791 313.183,308.877 	"/>
	<polygon fill="#B51851" points="310.955,310.028 310.499,311.219 310.516,309.532 	"/>
	<polygon fill="#701145" points="308.791,307.805 309.426,308.301 308.712,306.932 	"/>
	<polygon fill="#FFDEE8" points="309.526,309.165 310.516,309.532 309.426,308.301 	"/>
	<polygon fill="#350124" points="308.791,307.805 309.526,309.165 309.426,308.301 	"/>
	<polygon fill="#FF4878" points="309.526,309.165 310.516,309.532 310.499,311.219 	"/>
	<polygon fill="#FFEEF4" points="308.791,307.805 308.037,310.256 309.526,309.165 	"/>
	<polygon fill="#FFA6C6" points="308.037,310.256 309.799,309.743 309.526,309.165 	"/>
	<polygon fill="#FF4379" points="309.799,309.743 310.499,311.219 309.473,309.837 	"/>
	<polygon fill="#350124" points="308.037,310.256 309.473,309.837 309.784,310.256 	"/>
	<polygon fill="#350124" points="309.784,310.256 309.367,311.865 309.248,310.256 	"/>
	<polygon fill="#F98CAE" points="309.367,311.865 310.499,311.219 309.784,310.256 	"/>
	<polygon fill="#FCF5F8" points="309.248,310.256 308.633,312.361 309.367,311.865 	"/>
	<polygon fill="#600C38" points="309.248,310.256 308.633,312.361 308.712,310.256 	"/>
	<polygon fill="#FFFDFE" points="308.633,312.361 308.91,312.628 309.367,311.865 	"/>
	<polygon fill="#FFDEE8" points="308.037,310.256 308.137,308.142 308.791,307.805 	"/>
	<polygon fill="#FCC3D4" points="308.137,308.142 308.791,307.805 308.712,306.932 	"/>
	<polygon fill="#FF7DB2" points="310.955,310.028 310.499,311.219 313.813,309.791 	"/>
	<polygon fill="#931140" points="310.499,311.219 315.72,310.992 313.813,309.791 	"/>
	<polygon fill="#F980A5" points="309.367,311.865 308.91,312.628 310.499,311.219 	"/>
	<polygon fill="#7A133D" points="308.91,312.628 308.702,314.266 309.473,312.13 	"/>
	<polygon fill="#F7C6CF" points="309.473,312.13 312.742,311.121 310.499,311.219 	"/>
	<polygon fill="#F471A0" points="312.742,311.121 313.764,312.5 315.72,310.992 	"/>
	<polygon fill="#FF4D88" points="309.473,312.13 313.764,312.5 312.742,311.121 	"/>
	<polygon fill="#EA6C93" points="309.473,312.13 308.702,314.266 310.578,312.225 	"/>
	<polygon fill="#FCE6EE" points="308.702,314.266 310.578,312.225 313.764,312.5 	"/>
	<polygon fill="#FF7DB2" points="308.702,314.266 306.975,316.629 313.764,312.5 	"/>
	<polygon fill="#F980A5" points="306.975,316.629 306.846,317.472 307.878,316.629 	"/>
	<polygon fill="#F7C6CF" points="306.975,316.629 307.878,316.629 309.423,315.14 	"/>
	<polygon fill="#E880A8" points="307.878,316.629 308.86,316.629 309.423,315.14 	"/>
	<polygon fill="#F980A5" points="308.86,316.629 309.799,317.215 309.423,315.14 	"/>
	<polygon fill="#F23B78" points="309.423,315.14 309.799,317.215 310.578,317.701 	"/>
	<polygon fill="#AF1C58" points="309.423,315.14 310.578,317.701 311.967,315.834 	"/>
	<polygon fill="#FF4878" points="309.423,315.14 311.967,315.834 312.742,314.961 	"/>
	<polygon fill="#E7316E" points="312.742,314.961 313.477,314.335 309.423,315.14 	"/>
	<polygon fill="#EF3770" points="309.423,315.14 311.449,313.908 313.477,314.335 	"/>
	<polygon fill="#FF4D88" points="311.449,313.908 313.477,314.335 313.764,312.5 	"/>
	<polygon fill="#3F082A" points="313.764,312.5 313.477,314.335 315.72,310.992 	"/>
	<polygon fill="#000011" points="313.477,314.335 314.022,314.565 312.742,314.961 	"/>
	<polygon fill="#210117" points="312.742,314.961 311.967,315.834 314.022,314.565 	"/>
	<polygon fill="#701145" points="311.967,315.834 311.967,316.419 314.022,314.565 	"/>
	<polygon fill="#35021E" points="311.967,315.834 311.967,316.419 310.578,317.701 	"/>
	<polygon fill="#11010C" points="311.967,316.419 311.918,317.114 310.578,317.701 	"/>
	<polygon fill="#35021E" points="310.578,317.701 310.37,319.337 311.918,317.114 	"/>
	<polygon fill="#7A133D" points="306.846,317.472 307.878,316.629 308.86,316.629 	"/>
	<polygon fill="#660C37" points="306.846,317.472 308.86,316.935 310.578,317.701 308.86,316.629 	"/>
	<polygon fill="#600C38" points="306.846,317.472 306.906,319.03 307.854,317.205 	"/>
	<polygon fill="#750342" points="307.854,317.205 308.86,316.935 308.65,317.958 	"/>
	<polygon fill="#2D011C" points="306.906,319.03 308.65,317.958 307.854,317.205 	"/>
	<polygon fill="#4F0332" points="308.86,316.935 308.65,317.958 310.578,317.701 	"/>
	<polygon fill="#350124" points="308.65,317.958 308.494,319.517 306.906,319.03 	"/>
	<polygon fill="#11010C" points="306.906,319.03 309.189,320.886 308.494,319.517 	"/>
	<polygon fill="#210117" points="308.65,317.958 308.494,319.517 310.578,317.701 	"/>
	<polygon fill="#190111" points="308.494,319.517 310.37,319.337 310.578,317.701 	"/>
	<polygon fill="#4F0332" points="308.494,319.517 308.86,320.256 310.37,319.337 	"/>
	<polygon fill="#000009" points="308.86,320.256 309.189,320.886 310.37,319.337 	"/>
	<polygon fill="#060319" points="309.189,320.886 310.241,321.581 310.37,319.337 	"/>
	<polygon fill="#FFDEE8" points="307.718,319.684 308.938,322.575 310.241,321.581 309.189,320.886 	"/>
	<polygon fill="#F23B78" points="308.938,322.575 309.705,323.825 310.241,321.581 	"/>
	<polygon fill="#931140" points="309.705,323.825 310.776,324.615 310.241,321.581 	"/>
	<polygon fill="#300821" points="310.241,321.581 311.273,322.485 310.776,324.615 	"/>
	<polygon fill="#210117" points="311.273,322.485 314.856,322.703 310.776,324.615 	"/>
	<polygon fill="#190111" points="310.776,324.615 312.294,325.388 313.607,323.263 	"/>
	<polygon fill="#8E1144" points="310.241,321.581 311.273,322.485 314.856,322.703 312.102,321.71 	"/>
	<polygon fill="#350124" points="312.102,321.71 314.469,321.383 314.856,322.703 	"/>
	<polygon fill="#1F0E06" points="310.241,321.581 311.918,320.609 312.102,321.71 	"/>
	<polygon fill="#FFDEE8" points="310.37,319.337 310.241,321.581 311.918,320.609 	"/>
	<polygon fill="#FCC3D4" points="310.37,319.337 310.877,318.609 311.918,320.609 	"/>
	<polygon fill="#FFA6C6" points="310.877,318.609 313.174,317.958 311.918,317.114 	"/>
	<polygon fill="#C6365C" points="310.877,318.609 313.174,317.958 311.566,319.933 	"/>
	<polygon fill="#FCF5F8" points="311.566,319.933 311.918,320.609 312.192,319.165 	"/>
	<polygon fill="#1D1426" points="312.192,319.165 314.246,318.332 313.174,317.958 	"/>
	<polygon fill="#931140" points="311.918,320.609 312.192,319.165 314.246,318.332 	"/>
	<polygon fill="#210117" points="311.918,320.609 312.102,321.71 314.469,321.383 	"/>
	<polygon fill="#BF2558" points="311.918,320.609 313.174,320.991 312.656,319.886 	"/>
	<polygon fill="#FFA6C6" points="312.656,319.886 313.174,320.991 314.246,318.332 	"/>
	<polygon fill="#FF4D88" points="311.967,316.419 311.918,317.114 314.022,314.565 	"/>
	<polygon fill="#E880A8" points="311.918,317.114 313.174,317.958 314.022,314.565 	"/>
	<polygon fill="#F9E5EB" points="313.174,317.958 314.246,318.332 314.022,314.565 	"/>
	<polygon fill="#FCF5F8" points="314.469,321.383 314.99,320.112 313.174,320.991 	"/>
	<polygon fill="#7F133F" points="313.174,320.991 314.99,320.112 313.7,319.684 	"/>
	<polygon fill="#FCC3D4" points="313.7,319.684 314.99,320.112 314.246,318.332 	"/>
	<polygon fill="#3F082A" points="314.469,321.383 317.03,321.16 314.856,322.703 	"/>
	<polygon fill="#231D1D" points="314.469,321.383 314.729,320.748 317.03,321.16 	"/>
	<polygon fill="#F9E5EB" points="314.99,320.112 314.729,320.748 317.03,321.16 	"/>
	<polygon fill="#750342" points="317.03,321.16 320.439,319.609 315.879,320.569 	"/>
	<polygon fill="#7F133F" points="315.879,320.569 314.99,320.112 320.439,319.609 	"/>
	<polygon fill="#3F082A" points="314.618,319.221 316.575,319.965 314.99,320.112 	"/>
	<polygon fill="#FCD9E4" points="316.575,319.965 317.848,319.165 320.439,319.609 	"/>
	<polygon fill="#931140" points="316.575,319.965 317.848,319.165 314.618,319.221 	"/>
	<polygon fill="#FCF5F8" points="314.246,318.332 314.618,319.221 317.848,319.165 	"/>
	<polygon fill="#7A133D" points="317.848,319.165 319.501,318.56 320.439,319.609 	"/>
	<polygon fill="#F980A5" points="314.246,318.332 319.501,318.56 317.848,319.165 	"/>
	<polygon fill="#701145" points="314.246,318.332 315.749,318.396 314.17,317.05 	"/>
	<polygon fill="#F23B78" points="314.17,317.05 315.749,318.396 316.99,318.451 	"/>
	<polygon fill="#701145" points="316.99,318.451 317.258,317.374 315.802,317.861 	"/>
	<polygon fill="#3F082A" points="316.99,318.451 317.972,318.495 317.258,317.374 	"/>
	<polygon fill="#F7D0DE" points="317.258,317.374 317.972,318.495 319.501,318.56 	"/>
	<polygon fill="#FF4379" points="317.258,317.374 318.525,318.044 319.918,317.374 	"/>
	<polygon fill="#FFDEE8" points="318.525,318.044 319.918,317.374 319.501,318.56 	"/>
	<polygon fill="#EA326A" points="314.17,317.05 315.353,316.351 314.022,314.565 	"/>
	<polygon fill="#B51851" points="313.477,314.335 314.022,314.565 315.72,310.992 	"/>
	<polygon fill="#FCBECF" points="314.022,314.565 315.802,314.335 315.72,310.992 	"/>
	<polygon fill="#FF4D88" points="314.022,314.565 315.353,316.351 315.802,314.335 	"/>
	<polygon fill="#FFDEE8" points="315.353,316.351 314.17,317.05 315.802,317.861 	"/>
	<polygon fill="#FFDEE8" points="315.353,316.351 315.802,317.861 317.258,317.374 	"/>
	<polygon fill="#FCD9E4" points="315.353,316.351 316.874,316.351 315.802,314.335 	"/>
	<polygon fill="#FFA6C6" points="315.353,316.351 317.258,317.374 316.874,316.351 	"/>
	<polygon fill="#FFDEE8" points="319.918,317.374 317.258,317.374 316.874,316.351 	"/>
	<polygon fill="#FF4379" points="315.802,314.335 323.164,306.932 315.72,310.992 	"/>
	<polygon fill="#FFA6C6" points="322.129,305.511 323.164,306.932 326.287,306.593 	"/>
	<polygon fill="#F23B78" points="323.164,306.932 328.98,307.805 326.287,306.593 	"/>
	<polygon fill="#FFDEE8" points="320.825,309.284 328.98,307.805 323.164,306.932 	"/>
	<polygon fill="#3F082A" points="316.874,316.351 318.482,315.884 315.802,314.335 	"/>
	<polygon fill="#FFA6C6" points="316.874,316.351 318.482,315.884 319.918,317.374 	"/>
	<polygon fill="#E880A8" points="315.802,314.335 318.482,315.884 316.874,313.258 	"/>
	<polygon fill="#FFDEE8" points="316.874,313.258 318.482,315.884 318.313,311.81 	"/>
	<polygon fill="#F24077" points="318.313,311.81 321.496,311.219 320.825,309.284 	"/>
	<polygon fill="#C6365C" points="320.825,309.284 321.496,311.219 328.98,307.805 	"/>
	<polygon fill="#EA326A" points="318.313,311.81 318.482,315.884 321.496,311.219 	"/>
	<polygon fill="#28041C" points="321.496,311.219 322.129,311.81 328.98,307.805 	"/>
	<polygon fill="#28041C" points="318.482,315.884 322.129,311.81 321.496,311.219 	"/>
	<polygon fill="#FCC3D4" points="324.903,310.189 326.287,310.922 328.98,307.805 	"/>
	<polygon fill="#300821" points="322.129,311.81 326.287,310.922 324.903,310.189 	"/>
	<path fill="none" stroke="#020202" stroke-width="0.25" stroke-miterlimit="10" d="M318.482,315.884"/>
	<polygon fill="#3F082A" points="326.287,310.922 322.129,311.81 322.965,312.664 	"/>
	<polygon fill="#FCBECF" points="322.129,311.81 322.965,312.664 318.482,315.884 	"/>
	<polygon fill="#FFFDFE" points="319.918,317.374 321.317,316.863 318.482,315.884 	"/>
	<polygon fill="#7A133D" points="321.317,316.863 320.724,315.884 318.482,315.884 	"/>
	<polygon fill="#F980A5" points="318.482,315.884 320.724,315.884 322.965,312.664 	"/>
	<polygon fill="#F9E5ED" points="319.918,317.374 319.501,318.56 321.317,316.863 	"/>
	<polygon fill="#FC90B4" points="319.501,318.56 320.439,319.609 321.317,316.863 	"/>
	<polygon fill="#E5738B" points="320.724,315.884 321.317,316.863 322.965,312.664 	"/>
	<polygon fill="#F980A5" points="320.98,295.953 320.603,301.244 323.303,302.723 	"/>
	<polygon fill="#FFDEE8" points="321.834,294.604 320.98,295.953 323.164,296.35 	"/>
	<polygon fill="#F23B78" points="320.98,295.953 322.072,296.152 323.303,302.723 	"/>
	<polygon fill="#FFDEE8" points="322.072,296.152 323.164,296.35 323.303,302.723 	"/>
	<polygon fill="#FCE6EE" points="323.164,296.35 327.124,298.038 323.192,297.636 	"/>
	<polygon fill="#E880A8" points="323.303,302.723 323.192,297.636 325.157,304.382 	"/>
	<polygon fill="#FCF5F8" points="323.192,297.636 323.561,298.903 327.124,298.038 	"/>
	<polygon fill="#F7C6CF" points="323.561,298.903 328.98,299.125 327.124,298.038 	"/>
	<polygon fill="#F471A0" points="323.561,298.903 328.98,299.125 328.96,300.875 	"/>
	<polygon fill="#FF4D88" points="323.561,298.903 324.208,301.125 328.96,300.875 	"/>
	<polygon fill="#EF3770" points="324.208,301.125 324.702,302.823 328.96,300.875 	"/>
	<polygon fill="#E7316E" points="324.702,302.823 325.157,304.382 328.96,300.875 	"/>
	<polygon fill="#B51851" points="328.96,300.875 331.487,301.477 328.98,299.125 	"/>
	<polygon fill="#FF4878" points="325.157,304.382 328.96,300.875 331.487,301.477 	"/>
	<polygon fill="#350124" points="325.157,304.382 329.914,307.072 326.649,303.697 	"/>
	<polygon fill="#660C37" points="326.649,303.697 329.914,307.072 330.921,304.811 	"/>
	<polygon fill="#AF1C58" points="326.649,303.697 330.921,304.811 331.487,301.477 	"/>
	<path fill="none" stroke="#020202" stroke-width="0.25" stroke-miterlimit="10" d="M331.487,301.477"/>
	<polygon fill="#E7316E" points="321.834,294.604 323.164,296.35 323.759,293.437 	"/>
	<polygon fill="#F4899E" points="321.834,294.604 322.687,292.976 323.759,293.437 	"/>
	<polygon fill="#FFDEE8" points="321.834,294.604 322.285,292.247 322.687,292.976 	"/>
	<polygon fill="#FF7DB2" points="322.285,292.247 323.03,286.991 322.687,292.976 	"/>
	<polygon fill="#F980A5" points="322.687,292.976 323.759,293.437 323.03,286.991 	"/>
	<polygon fill="#E880A8" points="323.03,286.991 323.395,285.115 323.759,293.437 	"/>
	<polygon fill="#F7C6CF" points="323.395,285.115 323.833,283.388 323.489,287.437 	"/>
	<polygon fill="#E7316E" points="323.833,283.388 324.608,282.465 323.647,285.577 	"/>
	<polygon fill="#931140" points="323.647,285.577 325.218,283.388 324.608,282.465 	"/>
	<polygon fill="#FCC3D4" points="324.608,282.465 324.742,281.422 325.218,283.388 	"/>
	<polygon fill="#E5738B" points="324.742,281.422 326.856,279.636 326.856,280.663 	"/>
	<polygon fill="#EF3770" points="324.742,281.422 325.58,281.122 325.218,283.388 	"/>
	<polygon fill="#FFA6C6" points="325.218,283.388 325.58,281.122 326.856,280.663 	"/>
	<polygon fill="#FFDEE8" points="326.856,279.636 329.253,281.929 326.856,280.663 	"/>
	<polygon fill="#660C37" points="325.478,282.957 329.253,281.929 326.856,280.663 	"/>
	<polygon fill="#B51851" points="325.478,282.957 326.856,285.115 325.218,283.388 	"/>
	<polygon fill="#F4899E" points="325.478,282.957 326.226,284.129 329.253,281.929 	"/>
	<polygon fill="#F98CAE" points="329.253,281.929 332.052,284.757 328.458,282.507 	"/>
	<polygon fill="#C6365C" points="326.226,284.129 328.458,282.507 326.856,285.115 	"/>
	<polygon fill="#F9B4BF" points="326.856,285.115 327.556,286.142 328.458,282.507 	"/>
	<polygon fill="#FCBECF" points="323.647,285.577 326.856,285.115 325.218,283.388 	"/>
	<polygon fill="#F471A0" points="323.647,285.577 323.489,287.437 324.348,285.476 	"/>
	<polygon fill="#FCC3D4" points="324.348,285.476 327.556,286.142 326.856,285.115 	"/>
	<polygon fill="#F980A5" points="323.489,287.437 323.759,293.437 324.348,285.476 	"/>
	<polygon fill="#F24077" points="323.164,296.35 326.142,293.943 323.759,293.437 	"/>
	<polygon fill="#FFA6C6" points="323.164,296.35 326.142,293.943 324.173,296.781 	"/>
	<polygon fill="#F9E5ED" points="323.759,293.437 326.142,293.943 326.142,292.514 	"/>
	<polygon fill="#FFDEE8" points="324.348,285.476 323.759,293.437 326.142,292.514 	"/>
	<polygon fill="#F9A0C4" points="324.348,285.476 325.129,288.542 327.556,286.142 	"/>
	<polygon fill="#C01A5A" points="327.556,286.142 332.052,284.757 328.458,282.507 	"/>
	<polygon fill="#8E1144" points="327.556,286.142 327.824,288.542 325.129,288.542 	"/>
	<polygon fill="#7F133F" points="327.556,286.142 327.824,288.542 331.399,284.958 	"/>
	<polygon fill="#F7C6CF" points="332.052,284.757 333.586,286.991 331.399,284.958 	"/>
	<polygon fill="#F980A5" points="333.586,286.991 334.077,291.666 332.493,285.975 	"/>
	<polygon fill="#4F0332" points="327.824,288.542 332.493,285.975 331.399,284.958 	"/>
	<polygon fill="#FCC3D4" points="331.399,286.576 333.348,289.045 332.493,285.975 	"/>
	<polygon fill="#FFDEE8" points="333.348,289.045 333.285,291.174 334.077,291.666 	"/>
	<polygon fill="#FCF5F8" points="325.129,288.542 327.824,288.542 326.142,292.514 	"/>
	<polygon fill="#C6365C" points="326.142,292.514 326.142,293.943 328.271,295.805 	"/>
	<polygon fill="#FCF5F8" points="327.824,288.542 326.142,292.514 328.271,295.805 	"/>
	<polygon fill="#350124" points="327.824,288.542 333.348,289.045 331.399,286.576 	"/>
	<polygon fill="#750342" points="327.824,288.542 333.285,291.174 333.348,289.045 	"/>
	<polygon fill="#350124" points="333.586,286.991 334.568,289.641 334.077,291.666 	"/>
	<polygon fill="#600C38" points="327.824,288.542 328.271,295.805 333.285,291.174 	"/>
	<polygon fill="#F279A1" points="334.077,291.666 334.211,294.673 333.285,291.174 	"/>
	<polygon fill="#8E1144" points="331.499,292.824 333.852,293.319 333.285,291.174 	"/>
	<polygon fill="#FCF5F8" points="331.499,292.824 334.211,294.673 333.852,293.319 	"/>
	<polygon fill="#750342" points="334.211,294.673 335.253,294.673 334.077,291.666 	"/>
	<polygon fill="#2D011C" points="334.077,291.666 335.804,293.319 334.568,289.641 	"/>
	<polygon fill="#660C37" points="334.077,291.666 335.804,293.319 335.253,294.673 	"/>
	<polygon fill="#F980A5" points="331.499,292.824 333.125,297.194 334.211,294.673 	"/>
	<polygon fill="#7F133F" points="329.068,295.068 333.125,297.194 331.499,292.824 	"/>
	<polygon fill="#FCBECF" points="328.271,295.805 329.068,295.068 333.125,297.194 	"/>
	<polygon fill="#F9E5EB" points="326.142,293.943 324.173,296.781 328.271,295.805 	"/>
	<polygon fill="#7A133D" points="324.173,296.781 327.124,298.038 328.271,295.805 	"/>
	<polygon fill="#FCC3D4" points="328.271,295.805 327.124,298.038 328.98,299.125 	"/>
	<polygon fill="#FFDEE8" points="328.271,295.805 328.98,299.125 333.125,297.194 	"/>
	<polygon fill="#701145" points="333.125,297.194 333.586,300.142 332.087,297.678 	"/>
	<polygon fill="#F9A0C4" points="328.98,299.125 332.087,297.678 331.487,301.477 	"/>
	<polygon fill="#C6365C" points="332.087,297.678 331.487,301.477 333.586,300.142 	"/>
	<polygon fill="#7A133D" points="331.487,301.477 333.285,302.068 333.586,300.142 	"/>
	<polygon fill="#AF1C58" points="334.211,294.673 333.125,297.194 333.586,300.142 	"/>
	<polygon fill="#300821" points="335.253,294.673 335.532,295.362 334.211,294.673 	"/>
	<polygon fill="#FC90B4" points="335.804,293.319 335.532,295.362 335.253,294.673 	"/>
	<polygon fill="#BF2558" points="334.211,294.673 335.532,295.362 334.008,296.451 	"/>
	<polygon fill="#B51851" points="335.532,295.362 337.1,293.319 335.804,293.319 	"/>
	<polygon fill="#350124" points="334.568,289.641 337.1,293.319 335.804,293.319 	"/>
	<polygon fill="#701145" points="335.532,295.362 336.251,298.991 337.1,293.319 	"/>
	<polygon fill="#7A133D" points="334.008,296.451 336.251,298.991 335.532,295.362 	"/>
	<polygon fill="#F980A5" points="334.008,296.451 336.251,298.991 333.586,300.142 	"/>
	<polygon fill="#2D011C" points="336.251,298.991 339.199,296.519 336.794,295.362 	"/>
	<polygon fill="#931140" points="336.794,295.362 339.199,296.519 339.467,295.701 	"/>
	<polygon fill="#AF1C58" points="337.1,293.319 339.467,295.701 336.794,295.362 	"/>
	<polygon fill="#F7C6CF" points="333.586,300.142 336.901,302.068 336.251,298.991 	"/>
	<polygon fill="#BF1B4E" points="336.251,298.991 341.09,300.142 339.199,296.519 	"/>
	<polygon fill="#F23B78" points="336.901,302.068 338.311,301.477 336.251,298.991 	"/>
	<polygon fill="#EA326A" points="336.251,298.991 338.311,301.477 341.09,300.142 	"/>
	<polygon fill="#FF4379" points="339.467,295.701 341.09,300.142 339.199,296.519 	"/>
	<polygon fill="#F98CAE" points="333.586,300.142 337.199,304.53 336.901,302.068 	"/>
	<polygon fill="#FF7DB2" points="333.586,300.142 337.199,304.53 333.285,302.068 	"/>
	<polygon fill="#E880A8" points="331.487,301.477 333.285,302.068 330.921,304.811 	"/>
	<polygon fill="#4F0332" points="326.856,279.636 327.968,276.836 328.186,280.907 	"/>
	<polygon fill="#350124" points="327.968,276.836 328.458,273.621 327.789,270.822 	"/>
	<polygon fill="#750342" points="327.789,270.822 326.226,273.829 327.968,276.836 	"/>
	<polygon fill="#300821" points="326.226,273.829 326.856,279.636 327.968,276.836 	"/>
	<polygon fill="#FC90B4" points="326.226,273.829 325.64,280.663 326.856,279.636 	"/>
	<polygon fill="#C6365C" points="326.226,273.829 326.578,271.517 327.789,270.822 	"/>
	<polygon fill="#E880A8" points="341.09,300.142 342.489,303.011 338.311,301.477 	"/>
	<polygon fill="#FFA6C6" points="336.901,302.068 342.489,303.011 338.311,301.477 	"/>
	<polygon fill="#FFEEF4" points="336.901,302.068 337.199,304.53 342.489,303.011 	"/>
	<polygon fill="#FCE6EE" points="342.489,303.011 341.269,308.489 337.199,304.53 	"/>
	<polygon fill="#FF4379" points="333.285,302.068 336.901,306.053 330.921,304.811 	"/>
	<polygon fill="#EA6C93" points="333.285,302.068 337.199,304.53 336.901,306.053 	"/>
	<polygon fill="#FCF5F8" points="336.901,306.053 341.269,308.489 337.199,304.53 	"/>
	<polygon fill="#FF4D88" points="336.901,306.053 338.439,309.808 330.921,304.811 	"/>
	<polygon fill="#F980A5" points="341.269,308.489 341.894,312.664 336.901,306.053 	"/>
	<polygon fill="#FCF5F8" points="338.439,309.808 336.901,306.053 341.894,312.664 	"/>
	<polygon fill="#BF1B4E" points="329.914,307.072 330.921,304.811 338.439,309.808 	"/>
	<polygon fill="#FFDEE8" points="341.894,312.664 341.894,314.625 338.439,309.808 	"/>
	<polygon fill="#BF2558" points="329.914,307.072 341.894,314.625 338.439,309.808 	"/>
	<polygon fill="#FFDEE8" points="329.914,307.072 328.98,307.805 341.894,314.625 	"/>
	<polygon fill="#FCF5F8" points="341.894,314.625 340.167,315.308 328.98,307.805 	"/>
	<polygon fill="#701145" points="340.167,315.308 340.911,318.56 328.98,307.805 	"/>
	<polygon fill="#FFDEE8" points="326.287,310.922 335.903,314.045 328.98,307.805 	"/>
	<polygon fill="#F980A5" points="340.911,318.56 342.489,325.85 339.57,323.14 	"/>
	<polygon fill="#EA6C93" points="339.57,323.14 340.911,318.56 339.247,317.061 	"/>
	<polygon fill="#300821" points="339.57,323.14 336.901,320.906 339.247,317.061 	"/>
	<polygon fill="#7F133F" points="337.393,320.1 335.903,314.045 339.247,317.061 	"/>
	<polygon fill="#2D011C" points="335.903,314.045 335.437,317.061 337.393,320.1 	"/>
	<polygon fill="#8E1144" points="335.437,317.061 337.393,320.1 336.901,320.906 	"/>
	<polygon fill="#E7316E" points="326.287,310.922 335.903,314.045 335.437,317.061 	"/>
	<polygon fill="#600C38" points="326.287,310.922 331.487,316.863 335.437,317.061 	"/>
	<polygon fill="#3F082A" points="331.487,316.863 336.901,320.906 335.437,317.061 	"/>
	<polygon fill="#2D011C" points="336.901,320.906 339.084,325.85 342.489,325.85 339.57,323.14 	"/>
	<polygon fill="#FCBECF" points="322.965,312.664 331.487,316.863 326.287,310.922 	"/>
	<polygon fill="#FFDEE8" points="322.965,312.664 326.837,314.571 321.701,315.884 	"/>
	<polygon fill="#BF2558" points="321.701,315.884 331.487,316.863 326.837,314.571 	"/>
	<polygon fill="#660C37" points="321.701,315.884 336.901,320.906 331.487,316.863 	"/>
	<polygon fill="#F980A5" points="334.946,320.26 335.641,324.123 328.398,318.097 	"/>
	<polygon fill="#C6365C" points="321.317,316.863 328.398,318.097 321.701,315.884 	"/>
	<polygon fill="#600C38" points="320.439,319.609 322.129,321.581 317.03,321.16 	"/>
	<polygon fill="#FFA6C6" points="320.439,319.609 322.129,319.548 321.317,316.863 	"/>
	<polygon fill="#FFDEE8" points="320.439,319.609 322.129,319.548 322.129,321.581 	"/>
	<polygon fill="#F9A0C4" points="322.129,319.548 328.398,318.097 321.317,316.863 	"/>
	<polygon fill="#FCBECF" points="322.129,319.548 322.129,321.581 328.398,318.097 	"/>
	<polygon fill="#F4899E" points="325.927,319.469 335.641,324.123 328.398,318.097 	"/>
	<polygon fill="#F9E5ED" points="322.129,321.581 335.641,324.123 325.927,319.469 	"/>
	<polygon fill="#070000" points="314.856,322.703 322.129,321.581 317.03,321.16 	"/>
	<polygon fill="#000002" points="322.129,321.581 319.222,323.825 318.08,322.206 	"/>
	<polygon fill="#190111" points="314.856,322.703 319.222,323.825 318.08,322.206 	"/>
	<polygon fill="#000004" points="313.575,323.281 319.222,323.825 314.856,322.703 	"/>
	<polygon fill="#2D011C" points="313.575,323.281 314.856,324.896 319.222,323.825 	"/>
	<polygon fill="#600C38" points="313.575,323.281 312.294,325.388 314.856,324.896 	"/>
	<polygon fill="#FFDEE8" points="312.294,325.388 312.656,327.259 314.856,324.896 	"/>
	<polygon fill="#FCF5F8" points="312.656,327.259 314.729,328.927 314.856,324.896 	"/>
	<polygon fill="#F9B4BF" points="314.856,324.896 320.105,325.552 319.222,323.825 	"/>
	<polygon fill="#FFDEE8" points="314.856,324.896 316.712,329.324 314.729,328.927 	"/>
	<polygon fill="#FCC3D4" points="314.856,324.896 316.712,329.324 316.99,325.164 	"/>
	<polygon fill="#FFA6C6" points="316.712,329.324 318.895,329.046 316.99,325.164 	"/>
	<polygon fill="#FFA6C6" points="316.99,325.164 320.105,325.552 317.848,326.912 	"/>
	<polygon fill="#E5738B" points="320.105,325.552 317.848,326.912 321.548,326.565 	"/>
	<polygon fill="#C6365C" points="317.848,326.912 318.342,327.918 321.548,326.565 	"/>
	<polygon fill="#BF2558" points="318.342,327.918 318.895,329.046 321.548,326.565 	"/>
	<polygon fill="#701145" points="319.222,323.825 323.395,321.819 322.129,321.581 	"/>
	<polygon fill="#FCBECF" points="319.222,323.825 320.105,325.552 320.803,323.065 	"/>
	<polygon fill="#FC90B4" points="320.803,323.065 320.105,325.552 323.395,321.819 	"/>
	<polygon fill="#F9B4BF" points="323.395,321.819 322.616,322.703 324.858,322.093 	"/>
	<polygon fill="#FFA6C6" points="320.105,325.552 321.845,324.689 321.548,326.565 	"/>
	<polygon fill="#FF4D88" points="320.105,325.552 321.845,324.689 322.616,322.703 	"/>
	<polygon fill="#F4899E" points="321.548,326.565 325.486,325.85 321.845,324.689 	"/>
	<polygon fill="#C6365C" points="322.616,322.703 321.845,324.689 323.819,323.506 	"/>
	<polygon fill="#F23B78" points="324.858,322.093 322.616,322.703 323.819,323.506 	"/>
	<polygon fill="#EA6C93" points="321.845,324.689 325.486,325.85 323.819,323.506 	"/>
	<polygon fill="#F279A1" points="323.819,323.506 325.486,325.85 324.858,322.093 	"/>
	<polygon fill="#7A133D" points="325.486,325.85 327.898,327.11 324.858,322.093 	"/>
	<polygon fill="#660C37" points="321.548,326.565 324.653,328.233 325.486,325.85 	"/>
	<polygon fill="#8E1144" points="325.486,325.85 325.725,331.209 324.653,328.233 	"/>
	<polygon fill="#2D011C" points="325.486,325.85 326.593,327.242 325.725,331.209 	"/>
	<polygon fill="#FCC3D4" points="321.548,326.565 325.725,331.209 324.653,328.233 	"/>
	<polygon fill="#FFEEF4" points="321.548,326.565 323.633,331.09 325.725,331.209 	"/>
	<polygon fill="#FCF5F8" points="323.633,331.09 323.819,335.438 325.725,331.209 	"/>
	<polygon fill="#F7FCF2" points="323.819,335.438 323.395,338.147 325.725,331.209 	"/>
	<polygon fill="#750342" points="326.593,327.242 327.898,327.11 325.486,325.85 	"/>
	<polygon fill="#600C38" points="326.593,327.242 325.725,331.209 327.898,327.11 	"/>
	<polygon fill="#350124" points="327.898,327.11 328.98,329.324 329.477,327.577 	"/>
	<polygon fill="#C01A5A" points="327.898,327.11 323.395,338.147 325.725,331.209 	"/>
	<polygon fill="#600C38" points="335.641,324.123 337.393,330.316 335.437,329.512 	"/>
	<polygon fill="#FFDEE8" points="335.437,329.512 334.946,332.459 333.049,328.888 	"/>
	<polygon fill="#C6365C" points="333.049,328.888 333.288,331.834 332.663,332.459 	"/>
	<polygon fill="#8E1144" points="335.641,324.123 335.437,329.512 333.936,323.802 	"/>
	<polygon fill="#FF4D88" points="324.858,322.093 327.898,327.11 327.633,322.616 	"/>
	<polygon fill="#EA326A" points="327.633,322.616 327.776,325.036 333.936,323.802 	"/>
	<polygon fill="#C01A5A" points="327.776,325.036 327.898,327.11 329.477,327.577 	"/>
	<polygon fill="#FFA6C6" points="327.776,325.036 329.477,327.577 329.509,324.689 	"/>
	<polygon fill="#FFDEE8" points="329.477,327.577 330.886,330.435 331.6,328.332 	"/>
	<polygon fill="#BF2558" points="330.886,330.435 331.76,329.94 331.6,328.332 	"/>
	<polygon fill="#FCF5F8" points="331.76,329.94 332.663,332.459 333.049,328.888 	"/>
	<polygon fill="#F9E5EB" points="331.6,328.332 333.049,328.888 331.76,329.94 	"/>
	<polygon fill="#FFEEF4" points="333.049,328.888 333.936,323.802 335.437,329.512 	"/>
	<polygon fill="#BF2558" points="329.509,324.689 329.477,327.577 331.323,324.326 	"/>
	<polygon fill="#E5738B" points="331.323,324.326 331.6,328.332 329.477,327.577 	"/>
	<polygon fill="#F9B4BF" points="331.323,324.326 333.936,323.802 331.6,328.332 	"/>
	<polygon fill="#FCC3D4" points="333.936,323.802 331.6,328.332 333.049,328.888 	"/>
	<polygon fill="#3F082A" points="333.061,328.908 333.288,331.834 334.946,332.459 	"/>
	<polygon fill="#F980A5" points="315.342,306.932 313.813,309.791 314.985,309.631 	"/>
	<polygon fill="#C6365C" points="334.946,320.26 339.084,325.85 336.901,320.906 	"/>
	<polygon fill="#FFDEE8" points="339.084,325.85 335.641,324.123 334.946,320.26 	"/>
	<polyline fill="#FFEEF4" points="311.537,299.338 314.449,298.514 312.235,295.486 311.537,299.338 	"/>
	<polygon fill="#FCE6EE" points="312.235,295.486 311.537,299.338 310.531,296.875 	"/>
	<polygon fill="#F980A5" points="310.531,296.875 312.235,295.486 310.34,293.83 	"/>
	<polygon fill="#F980A5" points="308.712,292.42 310.419,295.094 310.34,293.83 	"/>
	<polygon fill="#F98CAE" points="308.712,292.42 310.531,296.875 310.419,295.094 	"/>
</g>
<g>
	<path fill="#FFFFFF" d="M381.388,312.719l-0.022-8.777l-4.305,7.231h-1.526l-4.285-7.044v8.59h-3.177v-14.63h2.801l5.477,9.092
		l5.392-9.092h2.781l0.042,14.63H381.388z"/>
	<path fill="#FFFFFF" d="M397.751,306.303v6.416H394.7v-1.399c-0.606,1.024-1.777,1.567-3.428,1.567
		c-2.634,0-4.201-1.463-4.201-3.406c0-1.986,1.4-3.366,4.829-3.366h2.592c0-1.399-0.836-2.215-2.592-2.215
		c-1.191,0-2.425,0.397-3.24,1.045l-1.171-2.278c1.233-0.878,3.052-1.358,4.849-1.358
		C395.766,301.308,397.751,302.896,397.751,306.303z M394.491,309.167v-1.149h-2.237c-1.525,0-2.006,0.564-2.006,1.316
		c0,0.815,0.69,1.358,1.839,1.358C393.174,310.692,394.114,310.191,394.491,309.167z"/>
	<path fill="#FFFFFF" d="M407.678,301.308v3.009c-0.272-0.02-0.48-0.041-0.731-0.041c-1.798,0-2.99,0.982-2.99,3.135v5.309h-3.261
		v-11.245h3.116v1.484C404.605,301.872,405.943,301.308,407.678,301.308z"/>
	<path fill="#FFFFFF" d="M409.224,298.089c0-1.024,0.815-1.819,2.028-1.819s2.027,0.752,2.027,1.756
		c0,1.087-0.815,1.881-2.027,1.881S409.224,299.113,409.224,298.089z M409.621,301.475h3.261v11.244h-3.261V301.475z"/>
	<path fill="#FFFFFF" d="M425.861,306.303v6.416h-3.053v-1.399c-0.604,1.024-1.775,1.567-3.427,1.567
		c-2.634,0-4.201-1.463-4.201-3.406c0-1.986,1.4-3.366,4.829-3.366h2.592c0-1.399-0.837-2.215-2.592-2.215
		c-1.193,0-2.425,0.397-3.24,1.045l-1.171-2.278c1.233-0.878,3.052-1.358,4.849-1.358
		C423.875,301.308,425.861,302.896,425.861,306.303z M422.6,309.167v-1.149h-2.236c-1.526,0-2.007,0.564-2.007,1.316
		c0,0.815,0.69,1.358,1.839,1.358C421.283,310.692,422.223,310.191,422.6,309.167z"/>
	<path fill="#FFFFFF" d="M434.032,305.405c0-4.41,3.386-7.567,7.942-7.567c2.528,0,4.641,0.92,6.02,2.592l-2.174,2.007
		c-0.982-1.129-2.215-1.715-3.678-1.715c-2.739,0-4.684,1.924-4.684,4.683c0,2.76,1.944,4.682,4.684,4.682
		c1.463,0,2.695-0.585,3.678-1.735l2.174,2.007c-1.379,1.693-3.491,2.612-6.04,2.612
		C437.417,312.97,434.032,309.815,434.032,305.405z"/>
	<path fill="#FFFFFF" d="M460.595,308.017h-8.507c0.313,1.4,1.505,2.257,3.22,2.257c1.19,0,2.047-0.354,2.821-1.087l1.734,1.883
		c-1.045,1.19-2.612,1.817-4.64,1.817c-3.888,0-6.417-2.445-6.417-5.79c0-3.365,2.571-5.789,6-5.789
		c3.302,0,5.852,2.215,5.852,5.831C460.658,307.39,460.617,307.746,460.595,308.017z M452.047,306.115h5.538
		c-0.23-1.421-1.296-2.341-2.759-2.341C453.342,303.774,452.276,304.673,452.047,306.115z"/>
	<path fill="#FFFFFF" d="M461.745,311.675l1.087-2.341c1.003,0.647,2.528,1.087,3.908,1.087c1.505,0,2.069-0.397,2.069-1.023
		c0-1.841-6.793,0.04-6.793-4.453c0-2.133,1.923-3.637,5.204-3.637c1.547,0,3.262,0.354,4.327,0.982l-1.087,2.319
		c-1.108-0.627-2.216-0.836-3.24-0.836c-1.463,0-2.091,0.46-2.091,1.045c0,1.924,6.794,0.063,6.794,4.494
		c0,2.091-1.943,3.574-5.309,3.574C464.711,312.887,462.79,312.364,461.745,311.675z"/>
	<path fill="#FFFFFF" d="M481.181,312.176c-0.669,0.481-1.651,0.711-2.654,0.711c-2.655,0-4.202-1.358-4.202-4.034v-4.619h-1.733
		v-2.508h1.733v-2.738h3.262v2.738h2.801v2.508h-2.801v4.577c0,0.962,0.522,1.484,1.4,1.484c0.479,0,0.961-0.146,1.316-0.418
		L481.181,312.176z"/>
	<path fill="#FFFFFF" d="M492.968,306.303v6.416h-3.051v-1.399c-0.607,1.024-1.777,1.567-3.428,1.567
		c-2.634,0-4.202-1.463-4.202-3.406c0-1.986,1.4-3.366,4.828-3.366h2.592c0-1.399-0.835-2.215-2.592-2.215
		c-1.19,0-2.424,0.397-3.24,1.045l-1.17-2.278c1.233-0.878,3.052-1.358,4.85-1.358C490.983,301.308,492.968,302.896,492.968,306.303
		z M489.707,309.167v-1.149h-2.235c-1.525,0-2.007,0.564-2.007,1.316c0,0.815,0.689,1.358,1.839,1.358
		C488.391,310.692,489.332,310.191,489.707,309.167z"/>
	<path fill="#FFFFFF" d="M502.895,301.308v3.009c-0.271-0.02-0.48-0.041-0.731-0.041c-1.797,0-2.988,0.982-2.988,3.135v5.309h-3.262
		v-11.245h3.115v1.484C499.823,301.872,501.161,301.308,502.895,301.308z"/>
	<path fill="#FFFFFF" d="M504.442,298.089c0-1.024,0.814-1.819,2.026-1.819s2.028,0.752,2.028,1.756
		c0,1.087-0.816,1.881-2.028,1.881S504.442,299.113,504.442,298.089z M504.838,301.475h3.261v11.244h-3.261V301.475z"/>
</g>
</svg>
